<svg xmlns="http://www.w3.org/2000/svg" width="175" height="50"><title/><g data-name="Layer 1" id="23970370-515e-4876-9704-6b6b8b5fd084"><path d="M36.655 39.86H15.07a1.27 1.27 0 1 1 0 -2.54v-0.001h21.013a1 1 0 0 0 1 -1V9.241a1 1 0 0 0 -1 -1H15.07V8.24h-0.46l-0.011 0.001h-0.028V8.244A1.694 1.694 0 0 0 12.915 9.935V39.255a1.692 1.692 0 0 0 1.695 1.69H36.655a0.429 0.429 0 0 0 0.43 -0.425v-0.23A0.433 0.433 0 0 0 36.655 39.86Z" fill="#10556b"/><path d="M35.815 37.32v2.54H15.07a1.27 1.27 0 1 1 0 -2.54Z" fill="#fff"/><path d="M31.237 45.689 29.51 44.47a0.378 0.378 0 0 0 -0.436 0L27.346 45.689a0.378 0.378 0 0 1 -0.597 -0.309V38.413H31.833v6.966A0.378 0.378 0 0 1 31.237 45.689Z" fill="#ffab80"/><path d="M15.07 8.241H36.083a1 1 0 0 1 1 1V36.319a1 1 0 0 1 -1 1H15.07a0 0 0 0 1 0 0V8.241A0 0 0 0 1 15.07 8.241Z" fill="#2b687f"/><path d="M31.755 16.56H20.399a0.75 0.75 0 0 1 0 -1.5H31.755a0.75 0.75 0 0 1 0 1.5Z" fill="#fff"/><path d="M31.755 20.044H20.399a0.75 0.75 0 0 1 0 -1.5H31.755a0.75 0.75 0 0 1 0 1.5Z" fill="#fff"/><path d="M28.673 23.529H20.399a0.75 0.75 0 0 1 0 -1.5H28.673a0.75 0.75 0 0 1 0 1.5Z" fill="#fff"/></g><g fill="#fff" text-anchor="middle" font-family="Verdana,Geneva,DejaVu Sans,sans-serif" text-rendering="geometricPrecision" font-size="200"><text x="1000" y="300" transform="scale(.1)" fill="#000" textLength="1000">User Guide</text></g></svg>